<mxfile host="app.diagrams.net" modified="2023-11-14T07:36:04.827Z" agent="Mozilla/5.0 (Windows NT 10.0; Win64; x64) AppleWebKit/537.36 (KHTML, like Gecko) Chrome/119.0.0.0 Safari/537.36 Edg/119.0.0.0" etag="Th_aCaYtvTnsVG5xtAzT" version="22.1.0" type="github">
  <diagram name="Page-1" id="KnALyriimFNui6E05drS">
    <mxGraphModel dx="736" dy="764" grid="1" gridSize="10" guides="1" tooltips="1" connect="1" arrows="1" fold="1" page="1" pageScale="1" pageWidth="850" pageHeight="1100" math="0" shadow="0">
      <root>
        <mxCell id="0" />
        <mxCell id="1" parent="0" />
        <mxCell id="fGixFEicbK8jAKSVXInB-1" value="KHACHHANG" style="rounded=1;whiteSpace=wrap;html=1;" vertex="1" parent="1">
          <mxGeometry x="170" y="140" width="90" height="40" as="geometry" />
        </mxCell>
        <mxCell id="fGixFEicbK8jAKSVXInB-2" value="NHANVIEN" style="rounded=1;whiteSpace=wrap;html=1;" vertex="1" parent="1">
          <mxGeometry x="722.5" y="210" width="90" height="40" as="geometry" />
        </mxCell>
        <mxCell id="fGixFEicbK8jAKSVXInB-3" value="PHIEUMUONTRA" style="rounded=1;whiteSpace=wrap;html=1;" vertex="1" parent="1">
          <mxGeometry x="140" y="370" width="110" height="40" as="geometry" />
        </mxCell>
        <mxCell id="fGixFEicbK8jAKSVXInB-4" value="HOADON" style="rounded=1;whiteSpace=wrap;html=1;" vertex="1" parent="1">
          <mxGeometry x="380" y="180" width="90" height="40" as="geometry" />
        </mxCell>
        <mxCell id="fGixFEicbK8jAKSVXInB-5" value="SACH" style="rounded=1;whiteSpace=wrap;html=1;" vertex="1" parent="1">
          <mxGeometry x="690" y="360" width="90" height="40" as="geometry" />
        </mxCell>
        <mxCell id="fGixFEicbK8jAKSVXInB-6" value="&lt;u&gt;MAKH&lt;/u&gt;" style="ellipse;whiteSpace=wrap;html=1;" vertex="1" parent="1">
          <mxGeometry y="50" width="90" height="50" as="geometry" />
        </mxCell>
        <mxCell id="fGixFEicbK8jAKSVXInB-7" value="TENKH" style="ellipse;whiteSpace=wrap;html=1;" vertex="1" parent="1">
          <mxGeometry x="100" y="50" width="90" height="50" as="geometry" />
        </mxCell>
        <mxCell id="fGixFEicbK8jAKSVXInB-8" value="DIACHI" style="ellipse;whiteSpace=wrap;html=1;" vertex="1" parent="1">
          <mxGeometry x="190" y="50" width="90" height="50" as="geometry" />
        </mxCell>
        <mxCell id="fGixFEicbK8jAKSVXInB-9" value="SDT" style="ellipse;whiteSpace=wrap;html=1;" vertex="1" parent="1">
          <mxGeometry x="290" y="50" width="90" height="50" as="geometry" />
        </mxCell>
        <mxCell id="fGixFEicbK8jAKSVXInB-10" value="" style="endArrow=none;html=1;rounded=0;entryX=0.5;entryY=1;entryDx=0;entryDy=0;exitX=0;exitY=0;exitDx=0;exitDy=0;" edge="1" parent="1" source="fGixFEicbK8jAKSVXInB-1" target="fGixFEicbK8jAKSVXInB-6">
          <mxGeometry width="50" height="50" relative="1" as="geometry">
            <mxPoint x="80" y="170" as="sourcePoint" />
            <mxPoint x="130" y="120" as="targetPoint" />
          </mxGeometry>
        </mxCell>
        <mxCell id="fGixFEicbK8jAKSVXInB-11" value="" style="endArrow=none;html=1;rounded=0;entryX=0.5;entryY=1;entryDx=0;entryDy=0;exitX=0.25;exitY=0;exitDx=0;exitDy=0;" edge="1" parent="1" source="fGixFEicbK8jAKSVXInB-1" target="fGixFEicbK8jAKSVXInB-7">
          <mxGeometry width="50" height="50" relative="1" as="geometry">
            <mxPoint x="130" y="250" as="sourcePoint" />
            <mxPoint x="180" y="210" as="targetPoint" />
          </mxGeometry>
        </mxCell>
        <mxCell id="fGixFEicbK8jAKSVXInB-12" value="" style="endArrow=none;html=1;rounded=0;entryX=0.5;entryY=1;entryDx=0;entryDy=0;exitX=0.5;exitY=0;exitDx=0;exitDy=0;" edge="1" parent="1" source="fGixFEicbK8jAKSVXInB-1" target="fGixFEicbK8jAKSVXInB-8">
          <mxGeometry width="50" height="50" relative="1" as="geometry">
            <mxPoint x="210" y="180" as="sourcePoint" />
            <mxPoint x="260" y="130" as="targetPoint" />
          </mxGeometry>
        </mxCell>
        <mxCell id="fGixFEicbK8jAKSVXInB-13" value="" style="endArrow=none;html=1;rounded=0;entryX=0.347;entryY=0.976;entryDx=0;entryDy=0;entryPerimeter=0;exitX=1;exitY=0;exitDx=0;exitDy=0;" edge="1" parent="1" source="fGixFEicbK8jAKSVXInB-1" target="fGixFEicbK8jAKSVXInB-9">
          <mxGeometry width="50" height="50" relative="1" as="geometry">
            <mxPoint x="260" y="180" as="sourcePoint" />
            <mxPoint x="310" y="130" as="targetPoint" />
          </mxGeometry>
        </mxCell>
        <mxCell id="fGixFEicbK8jAKSVXInB-14" value="&lt;u&gt;MANV&lt;/u&gt;" style="ellipse;whiteSpace=wrap;html=1;" vertex="1" parent="1">
          <mxGeometry x="605" y="100" width="90" height="50" as="geometry" />
        </mxCell>
        <mxCell id="fGixFEicbK8jAKSVXInB-15" value="HOTEN" style="ellipse;whiteSpace=wrap;html=1;" vertex="1" parent="1">
          <mxGeometry x="715" y="100" width="90" height="50" as="geometry" />
        </mxCell>
        <mxCell id="fGixFEicbK8jAKSVXInB-16" value="CHUCVU" style="ellipse;whiteSpace=wrap;html=1;" vertex="1" parent="1">
          <mxGeometry x="820" y="100" width="90" height="50" as="geometry" />
        </mxCell>
        <mxCell id="fGixFEicbK8jAKSVXInB-17" value="&lt;u&gt;MAPHIEU&lt;/u&gt;" style="ellipse;whiteSpace=wrap;html=1;" vertex="1" parent="1">
          <mxGeometry x="10" y="360" width="90" height="50" as="geometry" />
        </mxCell>
        <mxCell id="fGixFEicbK8jAKSVXInB-18" value="NGAYMUON" style="ellipse;whiteSpace=wrap;html=1;" vertex="1" parent="1">
          <mxGeometry x="35" y="450" width="90" height="50" as="geometry" />
        </mxCell>
        <mxCell id="fGixFEicbK8jAKSVXInB-19" value="NGAYTRA" style="ellipse;whiteSpace=wrap;html=1;" vertex="1" parent="1">
          <mxGeometry x="170" y="450" width="90" height="50" as="geometry" />
        </mxCell>
        <mxCell id="fGixFEicbK8jAKSVXInB-20" value="&lt;u&gt;MAHD&lt;/u&gt;" style="ellipse;whiteSpace=wrap;html=1;" vertex="1" parent="1">
          <mxGeometry x="310" y="240" width="90" height="50" as="geometry" />
        </mxCell>
        <mxCell id="fGixFEicbK8jAKSVXInB-21" value="NGAYLAP" style="ellipse;whiteSpace=wrap;html=1;" vertex="1" parent="1">
          <mxGeometry x="430" y="240" width="90" height="50" as="geometry" />
        </mxCell>
        <mxCell id="fGixFEicbK8jAKSVXInB-22" value="&lt;u&gt;MASACH&lt;/u&gt;" style="ellipse;whiteSpace=wrap;html=1;" vertex="1" parent="1">
          <mxGeometry x="612.5" y="450" width="90" height="50" as="geometry" />
        </mxCell>
        <mxCell id="fGixFEicbK8jAKSVXInB-23" value="TENSACH" style="ellipse;whiteSpace=wrap;html=1;" vertex="1" parent="1">
          <mxGeometry x="717.5" y="450" width="90" height="50" as="geometry" />
        </mxCell>
        <mxCell id="fGixFEicbK8jAKSVXInB-24" value="NXB" style="ellipse;whiteSpace=wrap;html=1;" vertex="1" parent="1">
          <mxGeometry x="820" y="450" width="90" height="50" as="geometry" />
        </mxCell>
        <mxCell id="fGixFEicbK8jAKSVXInB-25" value="TACGIA" style="ellipse;whiteSpace=wrap;html=1;" vertex="1" parent="1">
          <mxGeometry x="830" y="290" width="90" height="50" as="geometry" />
        </mxCell>
        <mxCell id="fGixFEicbK8jAKSVXInB-26" value="NAMXB" style="ellipse;whiteSpace=wrap;html=1;" vertex="1" parent="1">
          <mxGeometry x="830" y="370" width="90" height="50" as="geometry" />
        </mxCell>
        <mxCell id="fGixFEicbK8jAKSVXInB-27" value="" style="endArrow=none;html=1;rounded=0;entryX=0;entryY=0.5;entryDx=0;entryDy=0;exitX=1;exitY=0.5;exitDx=0;exitDy=0;" edge="1" parent="1" source="fGixFEicbK8jAKSVXInB-17" target="fGixFEicbK8jAKSVXInB-3">
          <mxGeometry width="50" height="50" relative="1" as="geometry">
            <mxPoint x="80" y="390" as="sourcePoint" />
            <mxPoint x="130" y="340" as="targetPoint" />
          </mxGeometry>
        </mxCell>
        <mxCell id="fGixFEicbK8jAKSVXInB-28" value="" style="endArrow=none;html=1;rounded=0;entryX=0.25;entryY=1;entryDx=0;entryDy=0;exitX=1;exitY=0;exitDx=0;exitDy=0;" edge="1" parent="1" source="fGixFEicbK8jAKSVXInB-18" target="fGixFEicbK8jAKSVXInB-3">
          <mxGeometry width="50" height="50" relative="1" as="geometry">
            <mxPoint x="100" y="490" as="sourcePoint" />
            <mxPoint x="150" y="440" as="targetPoint" />
          </mxGeometry>
        </mxCell>
        <mxCell id="fGixFEicbK8jAKSVXInB-29" value="" style="endArrow=none;html=1;rounded=0;entryX=0.564;entryY=0.98;entryDx=0;entryDy=0;entryPerimeter=0;exitX=0.5;exitY=0;exitDx=0;exitDy=0;" edge="1" parent="1" source="fGixFEicbK8jAKSVXInB-19" target="fGixFEicbK8jAKSVXInB-3">
          <mxGeometry width="50" height="50" relative="1" as="geometry">
            <mxPoint x="170" y="470" as="sourcePoint" />
            <mxPoint x="220" y="420" as="targetPoint" />
          </mxGeometry>
        </mxCell>
        <mxCell id="fGixFEicbK8jAKSVXInB-30" value="" style="endArrow=none;html=1;rounded=0;entryX=0.25;entryY=1;entryDx=0;entryDy=0;exitX=0.5;exitY=0;exitDx=0;exitDy=0;" edge="1" parent="1" source="fGixFEicbK8jAKSVXInB-20" target="fGixFEicbK8jAKSVXInB-4">
          <mxGeometry width="50" height="50" relative="1" as="geometry">
            <mxPoint x="370" y="270" as="sourcePoint" />
            <mxPoint x="420" y="220" as="targetPoint" />
          </mxGeometry>
        </mxCell>
        <mxCell id="fGixFEicbK8jAKSVXInB-31" value="" style="endArrow=none;html=1;rounded=0;entryX=0.5;entryY=1;entryDx=0;entryDy=0;exitX=0.5;exitY=0;exitDx=0;exitDy=0;" edge="1" parent="1" source="fGixFEicbK8jAKSVXInB-21" target="fGixFEicbK8jAKSVXInB-4">
          <mxGeometry width="50" height="50" relative="1" as="geometry">
            <mxPoint x="400" y="270" as="sourcePoint" />
            <mxPoint x="450" y="220" as="targetPoint" />
          </mxGeometry>
        </mxCell>
        <mxCell id="fGixFEicbK8jAKSVXInB-32" value="" style="endArrow=none;html=1;rounded=0;entryX=0.25;entryY=1;entryDx=0;entryDy=0;exitX=0.5;exitY=0;exitDx=0;exitDy=0;" edge="1" parent="1" source="fGixFEicbK8jAKSVXInB-22" target="fGixFEicbK8jAKSVXInB-5">
          <mxGeometry width="50" height="50" relative="1" as="geometry">
            <mxPoint x="670" y="460" as="sourcePoint" />
            <mxPoint x="720" y="410" as="targetPoint" />
          </mxGeometry>
        </mxCell>
        <mxCell id="fGixFEicbK8jAKSVXInB-33" value="" style="endArrow=none;html=1;rounded=0;entryX=0.5;entryY=1;entryDx=0;entryDy=0;exitX=0.5;exitY=0;exitDx=0;exitDy=0;" edge="1" parent="1" source="fGixFEicbK8jAKSVXInB-23" target="fGixFEicbK8jAKSVXInB-5">
          <mxGeometry width="50" height="50" relative="1" as="geometry">
            <mxPoint x="770" y="460" as="sourcePoint" />
            <mxPoint x="820" y="410" as="targetPoint" />
          </mxGeometry>
        </mxCell>
        <mxCell id="fGixFEicbK8jAKSVXInB-34" value="" style="endArrow=none;html=1;rounded=0;entryX=0.75;entryY=1;entryDx=0;entryDy=0;exitX=0.227;exitY=0.144;exitDx=0;exitDy=0;exitPerimeter=0;" edge="1" parent="1" source="fGixFEicbK8jAKSVXInB-24" target="fGixFEicbK8jAKSVXInB-5">
          <mxGeometry width="50" height="50" relative="1" as="geometry">
            <mxPoint x="770" y="470" as="sourcePoint" />
            <mxPoint x="820" y="420" as="targetPoint" />
          </mxGeometry>
        </mxCell>
        <mxCell id="fGixFEicbK8jAKSVXInB-35" value="" style="endArrow=none;html=1;rounded=0;exitX=1;exitY=0.5;exitDx=0;exitDy=0;" edge="1" parent="1" source="fGixFEicbK8jAKSVXInB-5">
          <mxGeometry width="50" height="50" relative="1" as="geometry">
            <mxPoint x="790" y="440" as="sourcePoint" />
            <mxPoint x="830" y="400" as="targetPoint" />
          </mxGeometry>
        </mxCell>
        <mxCell id="fGixFEicbK8jAKSVXInB-36" value="" style="endArrow=none;html=1;rounded=0;entryX=0;entryY=0.5;entryDx=0;entryDy=0;" edge="1" parent="1" target="fGixFEicbK8jAKSVXInB-25">
          <mxGeometry width="50" height="50" relative="1" as="geometry">
            <mxPoint x="770" y="360" as="sourcePoint" />
            <mxPoint x="820" y="310" as="targetPoint" />
          </mxGeometry>
        </mxCell>
        <mxCell id="fGixFEicbK8jAKSVXInB-37" value="" style="endArrow=none;html=1;rounded=0;entryX=0.5;entryY=1;entryDx=0;entryDy=0;exitX=0.25;exitY=0;exitDx=0;exitDy=0;" edge="1" parent="1" source="fGixFEicbK8jAKSVXInB-2" target="fGixFEicbK8jAKSVXInB-14">
          <mxGeometry width="50" height="50" relative="1" as="geometry">
            <mxPoint x="652.5" y="220" as="sourcePoint" />
            <mxPoint x="702.5" y="170" as="targetPoint" />
          </mxGeometry>
        </mxCell>
        <mxCell id="fGixFEicbK8jAKSVXInB-38" value="" style="endArrow=none;html=1;rounded=0;entryX=0.5;entryY=1;entryDx=0;entryDy=0;exitX=0.5;exitY=0;exitDx=0;exitDy=0;" edge="1" parent="1" source="fGixFEicbK8jAKSVXInB-2" target="fGixFEicbK8jAKSVXInB-15">
          <mxGeometry width="50" height="50" relative="1" as="geometry">
            <mxPoint x="715" y="210" as="sourcePoint" />
            <mxPoint x="765" y="160" as="targetPoint" />
          </mxGeometry>
        </mxCell>
        <mxCell id="fGixFEicbK8jAKSVXInB-39" value="" style="endArrow=none;html=1;rounded=0;entryX=0.5;entryY=1;entryDx=0;entryDy=0;exitX=0.75;exitY=0;exitDx=0;exitDy=0;" edge="1" parent="1" source="fGixFEicbK8jAKSVXInB-2" target="fGixFEicbK8jAKSVXInB-16">
          <mxGeometry width="50" height="50" relative="1" as="geometry">
            <mxPoint x="812.5" y="215" as="sourcePoint" />
            <mxPoint x="862.5" y="165" as="targetPoint" />
          </mxGeometry>
        </mxCell>
        <mxCell id="fGixFEicbK8jAKSVXInB-54" value="Có" style="rhombus;whiteSpace=wrap;html=1;" vertex="1" parent="1">
          <mxGeometry x="400" y="390" width="80" height="50" as="geometry" />
        </mxCell>
        <mxCell id="fGixFEicbK8jAKSVXInB-55" value="" style="edgeStyle=entityRelationEdgeStyle;fontSize=12;html=1;endArrow=ERoneToMany;rounded=0;entryX=1;entryY=0.5;entryDx=0;entryDy=0;exitX=0;exitY=0.5;exitDx=0;exitDy=0;" edge="1" parent="1" source="fGixFEicbK8jAKSVXInB-54" target="fGixFEicbK8jAKSVXInB-3">
          <mxGeometry width="100" height="100" relative="1" as="geometry">
            <mxPoint x="250" y="550" as="sourcePoint" />
            <mxPoint x="350" y="450" as="targetPoint" />
          </mxGeometry>
        </mxCell>
        <mxCell id="fGixFEicbK8jAKSVXInB-56" value="" style="edgeStyle=entityRelationEdgeStyle;fontSize=12;html=1;endArrow=ERmany;rounded=0;exitX=1;exitY=0.5;exitDx=0;exitDy=0;entryX=0;entryY=0.5;entryDx=0;entryDy=0;" edge="1" parent="1" source="fGixFEicbK8jAKSVXInB-54" target="fGixFEicbK8jAKSVXInB-5">
          <mxGeometry width="100" height="100" relative="1" as="geometry">
            <mxPoint x="490" y="520" as="sourcePoint" />
            <mxPoint x="590" y="420" as="targetPoint" />
          </mxGeometry>
        </mxCell>
        <mxCell id="fGixFEicbK8jAKSVXInB-57" value="Làm" style="rhombus;whiteSpace=wrap;html=1;" vertex="1" parent="1">
          <mxGeometry x="345" y="330" width="80" height="50" as="geometry" />
        </mxCell>
        <mxCell id="fGixFEicbK8jAKSVXInB-58" value="" style="edgeStyle=entityRelationEdgeStyle;fontSize=12;html=1;endArrow=ERoneToMany;rounded=0;entryX=1;entryY=0;entryDx=0;entryDy=0;exitX=0;exitY=0.5;exitDx=0;exitDy=0;" edge="1" parent="1" source="fGixFEicbK8jAKSVXInB-57" target="fGixFEicbK8jAKSVXInB-3">
          <mxGeometry width="100" height="100" relative="1" as="geometry">
            <mxPoint x="260" y="560" as="sourcePoint" />
            <mxPoint x="260" y="400" as="targetPoint" />
          </mxGeometry>
        </mxCell>
        <mxCell id="fGixFEicbK8jAKSVXInB-59" value="" style="edgeStyle=entityRelationEdgeStyle;fontSize=12;html=1;endArrow=ERmany;rounded=0;exitX=1;exitY=0.5;exitDx=0;exitDy=0;entryX=0;entryY=0.75;entryDx=0;entryDy=0;" edge="1" parent="1" source="fGixFEicbK8jAKSVXInB-57" target="fGixFEicbK8jAKSVXInB-2">
          <mxGeometry width="100" height="100" relative="1" as="geometry">
            <mxPoint x="500" y="530" as="sourcePoint" />
            <mxPoint x="700" y="390" as="targetPoint" />
          </mxGeometry>
        </mxCell>
        <mxCell id="fGixFEicbK8jAKSVXInB-60" value="Có" style="rhombus;whiteSpace=wrap;html=1;" vertex="1" parent="1">
          <mxGeometry x="40" y="260" width="80" height="50" as="geometry" />
        </mxCell>
        <mxCell id="fGixFEicbK8jAKSVXInB-61" value="" style="edgeStyle=entityRelationEdgeStyle;fontSize=12;html=1;endArrow=ERoneToMany;rounded=0;entryX=0.5;entryY=0;entryDx=0;entryDy=0;exitX=0;exitY=0.5;exitDx=0;exitDy=0;" edge="1" parent="1" source="fGixFEicbK8jAKSVXInB-60" target="fGixFEicbK8jAKSVXInB-3">
          <mxGeometry width="100" height="100" relative="1" as="geometry">
            <mxPoint x="47.5" y="440" as="sourcePoint" />
            <mxPoint x="47.5" y="280" as="targetPoint" />
          </mxGeometry>
        </mxCell>
        <mxCell id="fGixFEicbK8jAKSVXInB-62" value="" style="edgeStyle=entityRelationEdgeStyle;fontSize=12;html=1;endArrow=ERmany;rounded=0;exitX=1;exitY=0.5;exitDx=0;exitDy=0;entryX=0;entryY=0.75;entryDx=0;entryDy=0;" edge="1" parent="1" source="fGixFEicbK8jAKSVXInB-60" target="fGixFEicbK8jAKSVXInB-1">
          <mxGeometry width="100" height="100" relative="1" as="geometry">
            <mxPoint x="287.5" y="410" as="sourcePoint" />
            <mxPoint x="487.5" y="270" as="targetPoint" />
          </mxGeometry>
        </mxCell>
        <mxCell id="fGixFEicbK8jAKSVXInB-63" value="Có" style="rhombus;whiteSpace=wrap;html=1;" vertex="1" parent="1">
          <mxGeometry x="400" y="110" width="80" height="50" as="geometry" />
        </mxCell>
        <mxCell id="fGixFEicbK8jAKSVXInB-64" value="" style="edgeStyle=entityRelationEdgeStyle;fontSize=12;html=1;endArrow=ERmany;rounded=0;exitX=0;exitY=0.5;exitDx=0;exitDy=0;entryX=1;entryY=0.5;entryDx=0;entryDy=0;" edge="1" parent="1" source="fGixFEicbK8jAKSVXInB-63" target="fGixFEicbK8jAKSVXInB-1">
          <mxGeometry width="100" height="100" relative="1" as="geometry">
            <mxPoint x="130" y="295" as="sourcePoint" />
            <mxPoint x="290" y="200" as="targetPoint" />
          </mxGeometry>
        </mxCell>
        <mxCell id="fGixFEicbK8jAKSVXInB-65" value="" style="edgeStyle=entityRelationEdgeStyle;fontSize=12;html=1;endArrow=ERmany;rounded=0;exitX=0.5;exitY=1;exitDx=0;exitDy=0;entryX=0.5;entryY=0;entryDx=0;entryDy=0;" edge="1" parent="1" source="fGixFEicbK8jAKSVXInB-63" target="fGixFEicbK8jAKSVXInB-4">
          <mxGeometry width="100" height="100" relative="1" as="geometry">
            <mxPoint x="410" y="145" as="sourcePoint" />
            <mxPoint x="270" y="170" as="targetPoint" />
          </mxGeometry>
        </mxCell>
      </root>
    </mxGraphModel>
  </diagram>
</mxfile>
